<svg width="16" height="16" viewBox="0 0 16 16" fill="none" xmlns="http://www.w3.org/2000/svg">
<g id="icons/Star/Filled">
<path id="Shape" d="M7.38805 2.08514C7.61966 1.54844 8.38067 1.54844 8.61227 2.08514L10.0656 5.45307C10.1637 5.68032 10.3796 5.83454 10.6264 5.85361L14.3535 6.14161C14.9515 6.18781 15.1891 6.93852 14.7266 7.32038L11.9236 9.63456C11.7259 9.79779 11.6393 10.0599 11.7009 10.3088L12.5636 13.7944C12.7054 14.3676 12.0871 14.8286 11.5782 14.529L8.33838 12.6217C8.12964 12.4988 7.87068 12.4988 7.66194 12.6217L4.42212 14.529C3.91326 14.8286 3.2949 14.3676 3.43676 13.7944L4.29939 10.3088C4.36098 10.0599 4.2744 9.79779 4.0767 9.63456L1.27377 7.32038C0.811265 6.93852 1.04887 6.18781 1.64686 6.14161L5.37396 5.85361C5.62074 5.83454 5.83664 5.68032 5.9347 5.45307L7.38805 2.08514Z" fill="#141718"/>
</g>
</svg>
